<svg width="224" height="140" viewBox="0 0 224 140" fill="none" xmlns="http://www.w3.org/2000/svg">
<g id="logo">
<g id="Group 1">
<path id="Vector" d="M170.358 79.9332C176.24 78.0459 180.825 74.8672 183.916 70.4965C187.106 66.1259 188.601 61.1592 188.601 55.4972C188.601 50.2325 187.405 45.5639 184.912 41.3919C182.52 37.2199 178.831 33.9419 173.947 31.4585C169.062 29.0745 163.181 27.7832 156.402 27.7832H143.442V49.9345H154.009C156.501 49.9345 158.396 50.5305 159.691 51.8219C160.987 53.1132 161.685 54.8019 161.685 57.0865C161.685 59.5699 161.087 61.3579 159.791 62.5499C158.495 63.7419 156.601 64.2385 154.009 64.2385H143.442V81.9199H143.542L159.492 112.217H188.701L170.258 79.9332H170.358Z" fill="#76FFCE"/>
<path id="Vector_2" d="M108.171 27.7832H35.2994V53.3119H108.171V27.7832Z" fill="#FF4D8D"/>
<path id="Vector_3" d="M90.1276 57.186H35.2994V82.7147H90.1276V57.186Z" fill="#BCF740"/>
<path id="Vector_4" d="M62.4144 86.6877H35.2994V112.216H62.4144V86.6877Z" fill="#65ACFF"/>
<path id="Vector_5" d="M140.808 49.9345V27.7832H115.149V42.4845V49.9345V64.2385V112.217H140.808V81.9199V64.2385V49.9345Z" fill="#76FFCE"/>
</g>
</g>
</svg>
